<?xml version="1.0" encoding="UTF-8"?>
<svg xmlns="http://www.w3.org/2000/svg" xmlns:xlink="http://www.w3.org/1999/xlink" width="375pt" height="374.999991pt" viewBox="0 0 375 374.999991" version="1.2">
<defs>
<clipPath id="clip1">
  <path d="M 167 172 L 262.5 172 L 262.5 203 L 167 203 Z M 167 172 "/>
</clipPath>
<clipPath id="clip2">
  <path d="M 112.5 164.453125 L 153 164.453125 L 153 210.203125 L 112.5 210.203125 Z M 112.5 164.453125 "/>
</clipPath>
</defs>
<g id="surface1">
<g clip-path="url(#clip1)" clip-rule="nonzero">
<path style=" stroke:none;fill-rule:evenodd;fill:rgb(0%,76.078796%,79.60968%);fill-opacity:1;" d="M 178.460938 178.542969 C 177.015625 178.542969 175.300781 178.847656 173.425781 181.003906 L 173.425781 174.96875 C 173.425781 173.441406 172.179688 172.203125 170.648438 172.203125 C 169.117188 172.203125 167.871094 173.441406 167.871094 174.96875 L 167.871094 194.648438 C 167.871094 196.171875 169.117188 197.414062 170.648438 197.414062 C 172.179688 197.414062 173.425781 196.171875 173.425781 194.648438 L 173.425781 187.007812 C 173.425781 184.8125 174.476562 183.601562 176.386719 183.601562 C 178.253906 183.601562 179.238281 184.777344 179.238281 187.007812 L 179.238281 194.648438 C 179.238281 196.171875 180.484375 197.414062 182.019531 197.414062 C 183.550781 197.414062 184.796875 196.171875 184.796875 194.648438 L 184.796875 185.40625 C 184.792969 181.109375 182.425781 178.542969 178.460938 178.542969 Z M 194.421875 178.675781 C 192.15625 178.675781 190.363281 178.96875 188.605469 179.625 C 187.691406 179.964844 187.082031 180.839844 187.082031 181.804688 C 187.082031 183.09375 188.109375 184.097656 189.421875 184.097656 C 189.691406 184.097656 189.917969 184.058594 190.226562 183.957031 C 191.296875 183.625 192.421875 183.46875 193.679688 183.46875 C 196.667969 183.46875 197.300781 185.105469 197.308594 186.492188 C 196.273438 186.15625 194.96875 185.847656 193.144531 185.847656 C 188.398438 185.847656 185.675781 188.007812 185.675781 191.78125 L 185.675781 191.847656 C 185.675781 195.257812 188.246094 197.546875 192.074219 197.546875 C 194.230469 197.546875 195.957031 196.894531 197.332031 195.558594 C 197.566406 196.535156 198.507812 197.417969 199.953125 197.417969 C 201.472656 197.417969 202.664062 196.246094 202.664062 194.753906 L 202.664062 186.605469 C 202.664062 184.042969 201.992188 182.070312 200.652344 180.742188 C 199.273438 179.371094 197.175781 178.675781 194.421875 178.675781 Z M 193.613281 193.585938 C 192.039062 193.585938 191.0625 192.84375 191.0625 191.644531 L 191.0625 191.578125 C 191.0625 190.152344 192.261719 189.339844 194.351562 189.339844 C 195.425781 189.339844 196.492188 189.550781 197.378906 189.929688 L 197.378906 190.683594 C 197.378906 192.390625 195.828125 193.585938 193.613281 193.585938 Z M 210.113281 181.050781 C 211.550781 179.363281 213.320312 178.542969 215.511719 178.542969 C 219.691406 178.542969 223.917969 181.792969 223.917969 188.007812 L 223.917969 188.078125 C 223.917969 190.941406 223.035156 193.363281 221.363281 195.09375 C 219.835938 196.679688 217.757812 197.546875 215.511719 197.546875 C 213.347656 197.546875 211.628906 196.8125 210.140625 195.25 L 210.140625 199.988281 C 210.140625 201.511719 208.894531 202.753906 207.363281 202.753906 C 205.828125 202.753906 204.582031 201.511719 204.582031 199.988281 L 204.582031 181.441406 C 204.582031 179.917969 205.828125 178.675781 207.363281 178.675781 C 208.761719 178.675781 209.921875 179.710938 210.113281 181.050781 Z M 218.367188 188.007812 C 218.367188 185.328125 216.574219 183.300781 214.203125 183.300781 C 211.8125 183.300781 210.074219 185.28125 210.074219 188.007812 L 210.074219 188.078125 C 210.074219 190.804688 211.808594 192.785156 214.203125 192.785156 C 216.613281 192.785156 218.367188 190.804688 218.367188 188.078125 Z M 236.132812 178.542969 C 233.9375 178.542969 232.167969 179.363281 230.730469 181.050781 C 230.542969 179.710938 229.382812 178.675781 227.980469 178.675781 C 226.449219 178.675781 225.203125 179.917969 225.203125 181.441406 L 225.203125 199.988281 C 225.203125 201.511719 226.449219 202.753906 227.980469 202.753906 C 229.511719 202.753906 230.757812 201.511719 230.757812 199.988281 L 230.757812 195.25 C 232.25 196.8125 233.96875 197.546875 236.132812 197.546875 C 238.378906 197.546875 240.453125 196.679688 241.984375 195.09375 C 243.652344 193.363281 244.539062 190.941406 244.539062 188.078125 L 244.539062 188.007812 C 244.539062 181.792969 240.3125 178.542969 236.132812 178.542969 Z M 234.820312 183.300781 C 237.195312 183.300781 238.984375 185.328125 238.984375 188.007812 L 238.984375 188.078125 C 238.984375 190.804688 237.234375 192.785156 234.820312 192.785156 C 232.425781 192.785156 230.691406 190.804688 230.691406 188.078125 L 230.691406 188.007812 C 230.691406 185.28125 232.429688 183.300781 234.820312 183.300781 Z M 256.9375 180.761719 C 257.453125 179.394531 258.375 178.675781 259.601562 178.675781 C 261.082031 178.675781 262.242188 179.800781 262.242188 181.230469 C 262.242188 181.644531 262.105469 182.246094 261.984375 182.523438 L 255.71875 197.5 C 254.140625 201.296875 252.5 202.640625 249.4375 202.640625 C 248.359375 202.640625 247.527344 202.5 246.574219 202.160156 C 245.921875 201.921875 244.816406 201.308594 244.816406 199.84375 C 244.816406 198.40625 245.957031 197.550781 247.054688 197.550781 C 247.492188 197.550781 247.753906 197.625 247.964844 197.695312 C 248.398438 197.832031 248.636719 197.886719 248.964844 197.886719 C 249.800781 197.886719 250.148438 197.753906 250.570312 196.949219 L 250.695312 196.652344 L 244.597656 182.59375 C 244.460938 182.246094 244.3125 181.710938 244.3125 181.335938 C 244.3125 179.816406 245.492188 178.671875 247.054688 178.671875 C 248.347656 178.671875 249.21875 179.34375 249.71875 180.726562 L 253.390625 190.546875 Z M 256.9375 180.761719 "/>
</g>
<g clip-path="url(#clip2)" clip-rule="nonzero">
<path style=" stroke:none;fill-rule:nonzero;fill:rgb(100%,93.328857%,34.899902%);fill-opacity:1;" d="M 152.605469 176.0625 L 152.605469 192.21875 C 152.605469 198.628906 147.347656 203.828125 140.863281 203.828125 L 139.675781 203.828125 L 133.613281 209.820312 C 133.375 210.054688 133.046875 210.203125 132.683594 210.203125 C 132.347656 210.203125 132.042969 210.082031 131.808594 209.878906 L 131.703125 209.777344 L 131.699219 209.773438 L 125.6875 203.828125 L 124.496094 203.828125 C 118.015625 203.828125 112.757812 198.628906 112.757812 192.21875 L 112.757812 176.0625 C 112.757812 169.652344 118.015625 164.453125 124.5 164.453125 L 140.863281 164.453125 C 147.347656 164.453125 152.605469 169.652344 152.605469 176.0625 Z M 152.605469 176.0625 "/>
</g>
<path style=" stroke:none;fill-rule:nonzero;fill:rgb(0%,76.078796%,79.60968%);fill-opacity:1;" d="M 132.378906 194.128906 C 138.054688 194.128906 142.65625 191.085938 142.65625 187.328125 C 142.65625 183.574219 138.054688 180.527344 132.378906 180.527344 C 126.703125 180.527344 122.101562 183.574219 122.101562 187.328125 C 122.101562 191.085938 126.703125 194.128906 132.378906 194.128906 Z M 132.378906 194.128906 "/>
<path style=" stroke:none;fill-rule:nonzero;fill:rgb(0%,76.078796%,79.60968%);fill-opacity:1;" d="M 142.96875 183 C 144.859375 183 146.394531 181.894531 146.394531 180.527344 C 146.394531 179.164062 144.859375 178.054688 142.96875 178.054688 C 141.074219 178.054688 139.542969 179.164062 139.542969 180.527344 C 139.542969 181.894531 141.074219 183 142.96875 183 Z M 142.96875 183 "/>
<path style=" stroke:none;fill-rule:nonzero;fill:rgb(0%,76.078796%,79.60968%);fill-opacity:1;" d="M 136.117188 179.292969 C 138.007812 179.292969 139.542969 178.183594 139.542969 176.820312 C 139.542969 175.453125 138.007812 174.347656 136.117188 174.347656 C 134.222656 174.347656 132.691406 175.453125 132.691406 176.820312 C 132.691406 178.183594 134.222656 179.292969 136.117188 179.292969 Z M 136.117188 179.292969 "/>
<path style=" stroke:none;fill-rule:nonzero;fill:rgb(0%,76.078796%,79.60968%);fill-opacity:1;" d="M 128.019531 179.292969 C 129.910156 179.292969 131.445312 178.183594 131.445312 176.820312 C 131.445312 175.453125 129.910156 174.347656 128.019531 174.347656 C 126.128906 174.347656 124.59375 175.453125 124.59375 176.820312 C 124.59375 178.183594 126.128906 179.292969 128.019531 179.292969 Z M 128.019531 179.292969 "/>
<path style=" stroke:none;fill-rule:nonzero;fill:rgb(0%,76.078796%,79.60968%);fill-opacity:1;" d="M 121.167969 183 C 123.058594 183 124.59375 181.894531 124.59375 180.527344 C 124.59375 179.164062 123.058594 178.054688 121.167969 178.054688 C 119.277344 178.054688 117.742188 179.164062 117.742188 180.527344 C 117.742188 181.894531 119.277344 183 121.167969 183 Z M 121.167969 183 "/>
</g>
</svg>
