<?xml version="1.0" encoding="UTF-8"?>
<svg xmlns="http://www.w3.org/2000/svg" xmlns:xlink="http://www.w3.org/1999/xlink" width="375pt" height="374.999991pt" viewBox="0 0 375 374.999991" version="1.2">
<defs>
<clipPath id="clip1">
  <path d="M 157 164 L 300.878906 164 L 300.878906 212 L 157 212 Z M 157 164 "/>
</clipPath>
<clipPath id="clip2">
  <path d="M 74.378906 152.742188 L 135 152.742188 L 135 222.492188 L 74.378906 222.492188 Z M 74.378906 152.742188 "/>
</clipPath>
</defs>
<g id="surface1">
<g clip-path="url(#clip1)" clip-rule="nonzero">
<path style=" stroke:none;fill-rule:evenodd;fill:rgb(0%,76.078796%,79.60968%);fill-opacity:1;" d="M 173.980469 174.21875 C 171.796875 174.21875 169.207031 174.683594 166.378906 177.96875 L 166.378906 168.769531 C 166.378906 166.445312 164.496094 164.554688 162.183594 164.554688 C 159.867188 164.554688 157.988281 166.445312 157.988281 168.769531 L 157.988281 198.773438 C 157.988281 201.097656 159.867188 202.988281 162.183594 202.988281 C 164.496094 202.988281 166.378906 201.097656 166.378906 198.773438 L 166.378906 187.128906 C 166.378906 183.78125 167.960938 181.929688 170.84375 181.929688 C 173.667969 181.929688 175.152344 183.726562 175.152344 187.128906 L 175.152344 198.773438 C 175.152344 201.097656 177.035156 202.988281 179.351562 202.988281 C 181.664062 202.988281 183.546875 201.097656 183.546875 198.773438 L 183.546875 184.683594 C 183.539062 178.132812 179.96875 174.21875 173.980469 174.21875 Z M 198.078125 174.421875 C 194.660156 174.421875 191.949219 174.867188 189.296875 175.867188 C 187.917969 176.386719 186.992188 177.722656 186.992188 179.191406 C 186.992188 181.15625 188.546875 182.691406 190.53125 182.691406 C 190.9375 182.691406 191.28125 182.628906 191.746094 182.472656 C 193.359375 181.96875 195.0625 181.726562 196.960938 181.726562 C 201.46875 181.726562 202.429688 184.226562 202.441406 186.339844 C 200.875 185.828125 198.902344 185.359375 196.152344 185.359375 C 188.984375 185.359375 184.871094 188.652344 184.871094 194.402344 L 184.871094 194.503906 C 184.871094 199.699219 188.757812 203.191406 194.535156 203.191406 C 197.789062 203.191406 200.398438 202.199219 202.476562 200.164062 C 202.832031 201.652344 204.25 202.996094 206.433594 202.996094 C 208.730469 202.996094 210.527344 201.210938 210.527344 198.9375 L 210.527344 186.515625 C 210.527344 182.605469 209.507812 179.59375 207.488281 177.570312 C 205.402344 175.484375 202.238281 174.421875 198.078125 174.421875 Z M 196.859375 197.152344 C 194.480469 197.152344 193.007812 196.023438 193.007812 194.195312 L 193.007812 194.09375 C 193.007812 191.921875 194.816406 190.679688 197.976562 190.679688 C 199.59375 190.679688 201.207031 191 202.542969 191.578125 L 202.542969 192.726562 C 202.542969 195.328125 200.207031 197.152344 196.859375 197.152344 Z M 221.773438 178.042969 C 223.941406 175.472656 226.617188 174.21875 229.925781 174.21875 C 236.238281 174.21875 242.621094 179.175781 242.621094 188.652344 L 242.621094 188.753906 C 242.621094 193.121094 241.285156 196.816406 238.761719 199.453125 C 236.453125 201.867188 233.316406 203.191406 229.925781 203.191406 C 226.65625 203.191406 224.0625 202.074219 221.816406 199.6875 L 221.816406 206.914062 C 221.816406 209.238281 219.933594 211.128906 217.617188 211.128906 C 215.304688 211.128906 213.421875 209.238281 213.421875 206.914062 L 213.421875 178.636719 C 213.421875 176.3125 215.304688 174.421875 217.617188 174.421875 C 219.734375 174.421875 221.484375 176 221.773438 178.042969 Z M 234.234375 188.652344 C 234.234375 184.5625 231.53125 181.472656 227.945312 181.472656 C 224.339844 181.472656 221.710938 184.492188 221.710938 188.652344 L 221.710938 188.753906 C 221.710938 192.914062 224.332031 195.929688 227.945312 195.929688 C 231.589844 195.929688 234.234375 192.914062 234.234375 188.753906 Z M 261.058594 174.21875 C 257.75 174.21875 255.078125 175.472656 252.90625 178.042969 C 252.617188 176 250.867188 174.421875 248.753906 174.421875 C 246.4375 174.421875 244.558594 176.3125 244.558594 178.636719 L 244.558594 206.914062 C 244.558594 209.238281 246.4375 211.128906 248.753906 211.128906 C 251.066406 211.128906 252.949219 209.238281 252.949219 206.914062 L 252.949219 199.6875 C 255.195312 202.074219 257.792969 203.191406 261.058594 203.191406 C 264.453125 203.191406 267.585938 201.867188 269.894531 199.453125 C 272.417969 196.816406 273.753906 193.121094 273.753906 188.753906 L 273.753906 188.652344 C 273.753906 179.175781 267.371094 174.21875 261.058594 174.21875 Z M 259.082031 181.472656 C 262.664062 181.472656 265.367188 184.5625 265.367188 188.652344 L 265.367188 188.753906 C 265.367188 192.914062 262.726562 195.929688 259.082031 195.929688 C 255.464844 195.929688 252.847656 192.914062 252.847656 188.753906 L 252.847656 188.652344 C 252.847656 184.492188 255.472656 181.472656 259.082031 181.472656 Z M 292.476562 177.601562 C 293.253906 175.519531 294.644531 174.421875 296.496094 174.421875 C 298.734375 174.421875 300.488281 176.140625 300.484375 178.320312 C 300.484375 178.953125 300.28125 179.867188 300.101562 180.289062 L 290.636719 203.121094 C 288.257812 208.90625 285.773438 210.960938 281.152344 210.960938 C 279.523438 210.960938 278.269531 210.742188 276.832031 210.226562 C 275.839844 209.863281 274.175781 208.925781 274.175781 206.699219 C 274.175781 204.503906 275.894531 203.199219 277.554688 203.199219 C 278.214844 203.199219 278.609375 203.3125 278.929688 203.421875 C 279.582031 203.625 279.941406 203.710938 280.4375 203.710938 C 281.699219 203.710938 282.226562 203.507812 282.859375 202.285156 L 283.050781 201.828125 L 273.84375 180.394531 C 273.636719 179.867188 273.414062 179.046875 273.414062 178.476562 C 273.414062 176.164062 275.195312 174.417969 277.554688 174.417969 C 279.503906 174.417969 280.824219 175.441406 281.578125 177.546875 L 287.121094 192.523438 Z M 292.476562 177.601562 "/>
</g>
<g clip-path="url(#clip2)" clip-rule="nonzero">
<path style=" stroke:none;fill-rule:nonzero;fill:rgb(100%,93.328857%,34.899902%);fill-opacity:1;" d="M 134.9375 170.441406 L 134.9375 195.070312 C 134.9375 204.84375 127 212.769531 117.207031 212.769531 L 115.414062 212.769531 L 106.257812 221.90625 C 105.898438 222.265625 105.402344 222.492188 104.855469 222.492188 C 104.347656 222.492188 103.886719 222.304688 103.53125 221.996094 L 103.378906 221.839844 L 103.371094 221.835938 L 94.292969 212.769531 L 92.492188 212.769531 C 82.707031 212.769531 74.769531 204.84375 74.769531 195.070312 L 74.769531 170.441406 C 74.769531 160.664062 82.707031 152.742188 92.5 152.742188 L 117.207031 152.742188 C 127 152.742188 134.9375 160.664062 134.9375 170.441406 Z M 134.9375 170.441406 "/>
</g>
<path style=" stroke:none;fill-rule:nonzero;fill:rgb(0%,76.078796%,79.60968%);fill-opacity:1;" d="M 104.394531 197.984375 C 112.964844 197.984375 119.914062 193.339844 119.914062 187.617188 C 119.914062 181.890625 112.964844 177.246094 104.394531 177.246094 C 95.824219 177.246094 88.878906 181.890625 88.878906 187.617188 C 88.878906 193.339844 95.824219 197.984375 104.394531 197.984375 Z M 104.394531 197.984375 "/>
<path style=" stroke:none;fill-rule:nonzero;fill:rgb(0%,76.078796%,79.60968%);fill-opacity:1;" d="M 120.382812 181.019531 C 123.242188 181.019531 125.554688 179.328125 125.554688 177.246094 C 125.554688 175.164062 123.242188 173.476562 120.382812 173.476562 C 117.527344 173.476562 115.210938 175.164062 115.210938 177.246094 C 115.210938 179.328125 117.527344 181.019531 120.382812 181.019531 Z M 120.382812 181.019531 "/>
<path style=" stroke:none;fill-rule:nonzero;fill:rgb(0%,76.078796%,79.60968%);fill-opacity:1;" d="M 110.039062 175.363281 C 112.894531 175.363281 115.210938 173.675781 115.210938 171.59375 C 115.210938 169.507812 112.894531 167.820312 110.039062 167.820312 C 107.183594 167.820312 104.867188 169.507812 104.867188 171.59375 C 104.867188 173.675781 107.183594 175.363281 110.039062 175.363281 Z M 110.039062 175.363281 "/>
<path style=" stroke:none;fill-rule:nonzero;fill:rgb(0%,76.078796%,79.60968%);fill-opacity:1;" d="M 97.8125 175.363281 C 100.667969 175.363281 102.984375 173.675781 102.984375 171.59375 C 102.984375 169.507812 100.667969 167.820312 97.8125 167.820312 C 94.957031 167.820312 92.640625 169.507812 92.640625 171.59375 C 92.640625 173.675781 94.957031 175.363281 97.8125 175.363281 Z M 97.8125 175.363281 "/>
<path style=" stroke:none;fill-rule:nonzero;fill:rgb(0%,76.078796%,79.60968%);fill-opacity:1;" d="M 87.46875 181.019531 C 90.324219 181.019531 92.640625 179.328125 92.640625 177.246094 C 92.640625 175.164062 90.324219 173.476562 87.46875 173.476562 C 84.609375 173.476562 82.292969 175.164062 82.292969 177.246094 C 82.292969 179.328125 84.609375 181.019531 87.46875 181.019531 Z M 87.46875 181.019531 "/>
</g>
</svg>
